<svg width="22" height="22" viewBox="0 0 22 22" fill="none" xmlns="http://www.w3.org/2000/svg">
<path d="M18.2448 8.16003H9.99333C8.98062 8.16003 8.15967 8.98099 8.15967 9.99369V18.2452C8.15967 19.2579 8.98062 20.0788 9.99333 20.0788H18.2448C19.2575 20.0788 20.0785 19.2579 20.0785 18.2452V9.99369C20.0785 8.98099 19.2575 8.16003 18.2448 8.16003Z" stroke="white" stroke-width="2" stroke-linecap="round" stroke-linejoin="round"/>
<path d="M7.56226 13.6634H3.57511C3.0888 13.6634 2.6224 13.4702 2.27852 13.1263C1.93464 12.7825 1.74146 12.3161 1.74146 11.8298V3.57829C1.74146 3.09197 1.93464 2.62557 2.27852 2.2817C2.6224 1.93782 3.0888 1.74463 3.57511 1.74463H11.8266C12.3129 1.74463 12.7793 1.93782 13.1232 2.2817C13.4671 2.62557 13.6602 3.09197 13.6602 3.57829V8.07715" stroke="white" stroke-width="2" stroke-linecap="round" stroke-linejoin="round"/>
</svg>
